<mxfile host="app.diagrams.net" modified="2021-07-05T06:06:10.917Z" agent="5.0 (Windows NT 10.0; WOW64) AppleWebKit/537.36 (KHTML, like Gecko) Chrome/91.0.4472.124 Safari/537.36" etag="9EKQCCUxCZ5ZfxCBw2Y-" version="14.8.4" type="github">
  <diagram id="wqeYGq3JBMXqrsI8G5u3" name="Page-1">
    <mxGraphModel dx="1108" dy="482" grid="1" gridSize="10" guides="1" tooltips="1" connect="1" arrows="1" fold="1" page="1" pageScale="1" pageWidth="850" pageHeight="1100" math="0" shadow="0">
      <root>
        <mxCell id="0" />
        <mxCell id="1" parent="0" />
        <mxCell id="8Mg50HvBn_n_HQz8UVgS-1" value="&lt;b&gt;THIS IS DEFAULT LOCATION WHERE WE ARE CREATEING ROLES&lt;br&gt;&lt;/b&gt;&lt;div&gt;&lt;font style=&quot;font-size: 18px&quot;&gt;&lt;b&gt;/etc/ansible/roles&lt;/b&gt;&lt;/font&gt;&lt;/div&gt;&lt;div&gt;&lt;br&gt;&lt;/div&gt;" style="rounded=1;whiteSpace=wrap;html=1;" vertex="1" parent="1">
          <mxGeometry x="20" y="30" width="460" height="60" as="geometry" />
        </mxCell>
      </root>
    </mxGraphModel>
  </diagram>
</mxfile>
